<svg width="317" height="350" viewBox="0 0 317 350" fill="none" xmlns="http://www.w3.org/2000/svg">
<g clip-path="url(#clip0_6_98)">
<path d="M37.0853 265.926C35.8392 240.019 36.8438 213.142 42.3101 187.712C44.7186 176.452 49.0207 164.84 58.7516 157.89C67.6467 151.52 79.1311 150.614 89.7138 151.523C102.062 152.588 114.237 155.705 126.202 158.743C139.624 162.157 152.968 165.88 166.567 168.537C188.807 172.903 212.683 174.327 234.418 166.829C260.845 157.71 277.987 135.249 293.455 113.249C294.677 111.493 295.436 108.862 294.762 106.762C294.218 105.049 292.691 104.464 291.529 106.1C277.032 126.146 261.77 147.23 237.847 156.524C215.587 165.178 190.923 163.735 167.915 159.211C154.165 156.505 140.642 152.742 127.041 149.338C114.617 146.222 101.903 142.986 89.0671 142.25C78.5552 141.65 67.7203 143.003 58.8141 148.995C48.4251 155.965 42.7182 167.948 39.4633 179.608C35.5281 193.789 33.9485 208.744 32.7867 223.359C31.5876 238.801 31.3958 254.321 32.1312 269.779C32.196 271.403 33.2584 273.174 34.9702 272.085C36.682 270.997 37.1607 267.778 37.0853 265.926Z" fill="#D8737F"/>
<path d="M287.921 151.947C291.996 141.192 296.061 130.457 300.117 119.692C302.016 114.669 304.105 109.665 305.794 104.562C307.296 100.037 308.258 94.9449 306.558 90.3457C306.357 89.7981 305.955 88.6533 305.157 88.6048C298.904 88.3563 293.367 90.8758 287.721 93.266C281.437 95.9362 275.103 98.5069 268.749 101.018C255.861 106.1 242.813 110.803 229.654 115.179C226.785 116.14 225.895 125.046 229.112 124.035C241.953 119.999 254.644 115.565 267.203 110.743C273.398 108.351 279.563 105.871 285.698 103.3C291.254 100.94 297.048 97.8524 303.241 98.0711L301.84 96.3303C303.097 99.715 300.904 103.325 299.717 106.464L294.475 120.269C290.914 129.639 287.363 139.038 283.802 148.408C283.188 149.993 282.65 153.43 284.299 154.623C286.038 155.885 287.455 153.083 287.93 151.877L287.921 151.947Z" fill="#D8737F"/>
</g>
<defs>
<clipPath id="clip0_6_98">
<rect width="285.541" height="211.695" fill="white" transform="translate(0 255.698) rotate(-63.5708)"/>
</clipPath>
</defs>
</svg>
