<svg width="32" height="162" viewBox="0 0 32 162" fill="none" xmlns="http://www.w3.org/2000/svg">
<path d="M14.0678 160.378C11.7745 155.896 9.40865 151.506 7.64832 146.775C5.94782 142.205 4.67336 137.482 3.75785 132.698C1.87606 122.851 1.53158 112.752 2.10446 102.764C3.3753 80.6407 8.86474 58.8654 15.4528 37.7746C19.2563 25.6008 23.687 13.6341 27.5376 1.47823C27.8948 0.350556 26.1943 -0.0673712 25.7846 0.997255C21.6475 11.7174 18.0054 22.6447 14.5373 33.5954C11.0765 44.5281 7.93115 55.567 5.44204 66.7609C3.03994 77.5639 1.20164 88.5326 0.431156 99.5788C-0.268623 109.631 -0.0601361 119.774 1.56785 129.732C3.16501 139.509 6.20166 149.099 11.1708 157.717C11.8017 158.811 12.5341 159.823 13.3064 160.821C13.6436 161.261 14.3325 160.895 14.0678 160.378Z" fill="#D8737F"/>
<path d="M26.1453 0.557844C25.1047 1.08565 24.0061 1.55041 22.8966 1.9143C21.9738 2.21693 20.7954 2.3088 20.0376 2.92849C19.7022 3.2023 19.8999 3.77694 20.2896 3.87422C21.3284 4.13362 22.6047 3.4581 23.522 3.00234C24.6152 2.45832 25.5616 1.7828 26.4644 0.968563C26.6946 0.761402 26.4027 0.426342 26.1453 0.557844Z" fill="#D8737F"/>
<path d="M26.7671 1.5216C26.9629 2.80599 27.7244 4.07958 28.4024 5.16943C29.1257 6.33493 29.9506 7.37434 30.9912 8.27684C31.3809 8.6155 31.8868 8.10571 31.5568 7.71481C30.7011 6.70602 29.8219 5.69543 29.0677 4.60919C28.348 3.57519 27.8476 2.39167 27.1116 1.37749C26.981 1.20275 26.7345 1.31083 26.7671 1.5216Z" fill="#D8737F"/>
</svg>
