<svg width="273" height="106" viewBox="0 0 273 106" fill="none" xmlns="http://www.w3.org/2000/svg">
<path d="M104.2 52.2V54H91.6V87H89.8V54H77.2V52.2H104.2ZM127.074 54H108.354V52.2H130.194L111.114 85.2H130.434V87H107.994L127.074 54ZM140.029 52.2V69.6C140.029 75.56 140.969 79.76 142.849 82.2C144.769 84.6 147.389 85.8 150.709 85.8C154.029 85.8 156.629 84.6 158.509 82.2C160.429 79.76 161.389 75.56 161.389 69.6V52.2H163.189V69.6C163.189 81.6 159.029 87.6 150.709 87.6C142.389 87.6 138.229 81.6 138.229 69.6V52.2H140.029ZM173.985 87V52.2H175.785V87H173.985ZM196.185 87L177.705 68.64L194.265 52.2H196.845L180.285 68.64L198.765 87H196.185ZM204.864 52.2H206.664V87H204.864V52.2Z" fill="white"/>
<path d="M24.5893 91.0636C24.5893 90.964 24.6558 90.8643 24.7389 90.8144C24.8219 90.7646 24.9216 90.5486 24.9715 90.3492C25.0047 90.1332 25.5862 88.505 26.2508 86.7273C26.9154 84.9495 27.663 82.8893 27.9122 82.1583C28.1614 81.4273 28.9755 79.1843 29.7232 77.174C31.0856 73.5022 31.7003 71.8408 32.5643 69.3652C32.8301 68.6342 33.7937 65.9759 34.7241 63.4671C35.6545 60.9583 36.8508 57.7019 37.3658 56.2398C37.8975 54.7777 38.6451 52.7176 39.0273 51.6708C39.9743 49.0956 40.9379 46.4373 41.6191 44.5266C42.5661 41.885 43.2972 39.8912 44.1944 37.5486C44.6596 36.3191 45.2577 34.7075 45.5235 33.9765C45.7893 33.2455 46.3044 31.7834 46.6865 30.7367C47.0686 29.69 47.6668 28.0451 48.0157 27.0815C48.3646 26.1179 48.8796 24.7056 49.1787 23.9248C49.4777 23.1439 50.0426 21.5821 50.4414 20.4357C51.3219 17.9768 51.7207 16.8803 52.3022 15.5013L52.7342 14.4712L52.8671 14.5542C52.9335 14.6041 53.0665 14.8699 53.1495 15.169C53.2326 15.468 53.7643 16.9301 54.3291 18.442C54.894 19.9539 55.5586 21.7815 55.8244 22.5125C56.0903 23.2436 56.5887 24.6724 56.9542 25.6693C58.5658 30.1386 60.0279 34.2091 60.3103 35.0564C60.4765 35.5549 60.7922 36.452 61.0248 37.0502C61.2574 37.6483 61.8389 39.21 62.3041 40.5392C62.7859 41.8683 63.3508 43.4301 63.5834 44.0282C63.816 44.6263 64.5304 46.5702 65.1618 48.348C66.3746 51.7705 67.1389 53.864 68.2853 56.9875C68.6674 58.0342 69.3154 59.7953 69.6975 60.8919C71.1429 64.9624 71.9238 67.1056 72.821 69.5313C73.3194 70.9103 74.1169 73.1035 74.5987 74.4326C75.0639 75.7618 75.5956 77.2238 75.7617 77.6724C75.9445 78.1376 76.3765 79.3339 76.7254 80.3307C77.0909 81.3442 77.7389 83.1386 78.1708 84.3182C79.1511 87.0429 80.5799 91.0636 80.5799 91.1467C80.5799 91.2132 78.2539 89.8508 76.9746 89.0201L75.9445 88.3555L75.2467 86.2621C74.8646 85.0991 74.2166 83.2549 73.8012 82.1583C72.7379 79.284 70.8605 74.0172 70.0962 71.6912C69.4483 69.7473 69.2157 69.1326 67.7702 65.4608C67.0226 63.5502 65.7931 60.1608 64.7962 57.1536C64.4473 56.1069 63.9489 54.7944 63.6997 54.2461C63.4671 53.6978 63.0185 52.5348 62.7194 51.6708C62.4038 50.8069 61.4733 48.2317 60.6426 45.9389C58.5824 40.3066 57.2533 36.5517 56.406 33.9765C56.0238 32.7969 55.5586 31.5176 55.3759 31.152C55.1931 30.7865 54.9107 30.0721 54.7445 29.5737C54.4953 28.7596 52.8671 24.5727 52.7508 24.4564C52.7342 24.4398 52.5514 24.8386 52.3686 25.3702C50.8235 29.6069 50.3085 30.9693 49.8765 31.8997C49.4611 32.8135 47.2182 39.3097 46.1881 42.616C46.0219 43.1643 45.5734 44.3605 45.1912 45.2743C44.8257 46.1881 43.8455 48.8132 43.0147 51.0893C42.184 53.3821 41.3034 55.7746 41.0376 56.406C40.7884 57.0539 40.4229 58.0508 40.2235 58.6489C39.9078 59.679 39.642 60.41 37.7978 65.5439C37.3658 66.7401 36.7677 68.4182 36.4686 69.2821C36.153 70.1461 35.505 71.8408 35.0066 73.0204C33.7937 75.9279 33.3285 77.1241 32.8799 78.5031C32.6806 79.1511 32.3483 80.0483 32.1489 80.4969C31.9329 80.9621 31.6006 81.9257 31.4013 82.6567C31.0025 84.0856 29.69 87.6743 29.3078 88.4219L29.0752 88.8871L28.2777 89.2859C27.8458 89.5185 26.8987 90.0335 26.1677 90.4489C24.8053 91.2464 24.5893 91.3129 24.5893 91.0636Z" fill="white"/>
<path d="M28.9091 88.8041C28.9091 88.7376 29.0088 88.505 29.1417 88.2558C29.5239 87.5081 30.8364 83.9028 31.2351 82.4906C31.4345 81.7596 31.7668 80.7959 31.9828 80.3307C32.1822 79.8821 32.5144 78.9849 32.7138 78.337C33.1624 76.958 33.6276 75.7618 34.8405 72.8542C35.3389 71.6746 35.9869 69.9799 36.3025 69.116C36.6016 68.252 37.1997 66.574 37.6317 65.3777C39.4759 60.2439 39.7417 59.5128 40.0574 58.4828C40.2568 57.8846 40.6223 56.8878 40.8715 56.2398C41.1373 55.6085 42.0179 53.216 42.8486 50.9232C43.6793 48.647 44.6596 46.0219 45.0251 45.1081C45.4072 44.1944 45.8558 42.9981 46.022 42.4498C47.0521 39.1436 49.295 32.6473 49.7104 31.7335C49.9762 31.152 50.5743 29.6567 51.0229 28.4107C51.4715 27.1812 52.0032 25.7357 52.2192 25.1875L52.5847 24.2238L52.7342 24.1906L52.9003 24.174L53.7145 26.1677C54.1464 27.2643 54.6781 28.6433 54.8608 29.2414C55.0436 29.8395 55.3427 30.6204 55.542 30.9859C55.7248 31.3514 56.19 32.6307 56.5721 33.8103C57.4195 36.3856 58.7486 40.1404 60.8088 45.7727C61.6395 48.0655 62.5699 50.6407 62.8856 51.5047C63.1847 52.3686 63.6333 53.5317 63.8659 54.0799C64.1151 54.6282 64.6135 55.9407 64.9624 56.9875C65.9593 59.9947 67.1887 63.384 67.9364 65.2947C69.3819 68.9665 69.6145 69.5812 70.2624 71.5251C71.0267 73.8511 72.9041 79.1179 73.9674 81.9922C74.3828 83.0887 75.0308 84.9495 75.4295 86.1125L76.1273 88.2392L76.0442 88.3223L75.9612 88.4053L75.3132 88.073C74.9643 87.8737 74.2 87.4417 73.6019 87.0928L72.522 86.4614L71.3922 83.4044C70.7775 81.7097 70.0132 79.6661 69.6975 78.8354C69.3985 78.0213 68.385 75.2135 67.4712 72.605C66.5574 69.9965 65.5439 67.1555 65.2116 66.2915C64.8627 65.4276 64.2812 63.816 63.8825 62.7194C63.1016 60.4931 60.6759 53.7975 59.7289 51.2555C58.7818 48.6802 57.7351 45.8226 56.9044 43.4467C56.4891 42.2671 55.3925 39.21 54.4621 36.6846L52.7674 32.0658H52.6511C52.5016 32.0658 51.0728 35.6878 49.7602 39.4592C49.1787 41.1041 48.4975 42.9815 48.2649 43.6129C48.0157 44.2608 47.3511 46.0884 46.7696 47.6834C45.2411 52.0031 42.7822 58.7652 41.8518 61.2241C40.2069 65.5937 37.8311 72.09 36.9505 74.5655C36.4687 75.9777 35.2226 79.3671 34.2091 82.0918L32.3483 87.0762L31.5508 87.4915C31.1022 87.7075 30.3878 88.1063 29.9558 88.3887C29.2082 88.8705 28.9091 88.9868 28.9091 88.8041Z" fill="white"/>
<path d="M32.232 86.9267C32.232 86.8436 32.9796 84.7502 33.91 82.3078C34.8238 79.8489 36.0533 76.4928 36.6348 74.848C37.6649 71.9238 40.074 65.3611 41.6856 61.058C42.6326 58.5326 45.1248 51.6875 46.6035 47.5172C47.185 45.9223 47.8661 44.0116 48.1486 43.2806C48.431 42.5495 49.079 40.7552 49.594 39.2931C50.6574 36.2028 52.5348 31.4013 52.6677 31.4013C52.7508 31.4013 55.6085 39.1103 57.0705 43.2806C57.9013 45.6564 58.948 48.5141 59.895 51.0893C60.842 53.6313 63.2677 60.327 64.0486 62.5533C64.4473 63.6498 65.0288 65.2614 65.3777 66.1254C65.71 66.9893 66.7235 69.8304 67.6373 72.4389C68.5511 75.0473 69.5646 77.8552 69.8636 78.6693C71.01 81.6765 72.7546 86.4614 72.7213 86.4947C72.7047 86.5113 72.0567 86.1624 71.2925 85.7304L69.8969 84.9163L69.6477 84.368C69.5314 84.069 69.116 83.0056 68.7671 81.9922C68.4016 80.9953 67.8201 79.3837 67.4712 78.4201C66.8232 76.6589 65.5771 73.1533 64.547 70.279C64.2314 69.4151 63.6665 67.8865 63.3009 66.873C62.9188 65.8762 62.2542 64.032 61.8223 62.8025C60.7756 59.895 59.6458 56.7715 58.9812 54.9937C58.3997 53.4154 57.2201 50.1257 56.489 48.0987C56.2232 47.3677 55.6251 45.7229 55.1599 44.4436C54.6947 43.1643 53.9803 41.2038 53.5815 40.074C53.1994 38.9442 52.8339 37.9806 52.7674 37.9307L52.6677 37.831L52.568 37.9307C52.4683 38.0138 51.8702 39.6088 50.7571 42.6991C50.458 43.563 49.943 44.9919 49.6107 45.8558C49.295 46.7198 48.6138 48.5972 48.0988 50.0094C47.5837 51.4216 46.9357 53.1661 46.6699 53.864C46.3875 54.5784 45.9555 55.7746 45.6897 56.5223C45.4238 57.2865 44.9586 58.6157 44.6263 59.4796C43.7125 61.9884 42.4997 65.2947 41.3201 68.5345C40.7219 70.1793 40.1571 71.7078 40.0574 71.9404C39.9743 72.173 39.3928 73.7348 38.7781 75.4295C38.1633 77.1241 37.3326 79.4335 36.9172 80.5799C36.5019 81.7263 35.9536 83.2715 35.6712 84.0191L35.1727 85.3981L34.6577 85.6972C34.3752 85.8799 33.7107 86.2621 33.1956 86.5445L32.232 87.0762V86.9267Z" fill="white"/>
</svg>
