<svg width="233" height="283" viewBox="0 0 233 283" fill="none" xmlns="http://www.w3.org/2000/svg">
<g clip-path="url(#clip0_20_7)">
<path d="M198.96 245.096C205.727 223.426 210.801 200.438 211.778 177.693C212.22 167.624 211.136 156.839 204.426 148.807C198.295 141.451 188.767 138.151 179.603 136.588C168.909 134.768 157.909 134.724 147.104 134.659C134.982 134.592 122.859 134.804 110.753 134.056C90.9526 132.851 70.4142 128.793 53.6566 117.651C33.2823 104.1 23.7141 81.2949 15.4621 59.2493C14.8147 57.4933 14.7512 55.0972 15.7857 53.4666C16.6238 52.1359 18.0466 51.977 18.67 53.6186C26.5302 73.7949 34.8093 95.0184 53.0245 108.165C69.9718 120.403 91.1816 124.619 111.668 125.859C123.911 126.598 136.195 126.393 148.467 126.508C159.678 126.607 171.16 126.669 182.195 128.876C191.231 130.685 200.111 134.22 206.334 141.259C213.597 149.453 215.789 160.862 215.976 171.456C216.182 184.336 214.223 197.351 211.985 209.987C209.597 223.331 206.337 236.52 202.306 249.452C201.894 250.813 200.603 252.079 199.393 250.779C198.183 249.48 198.487 246.648 198.96 245.096V245.096Z" fill="#D8737F"/>
<path d="M11.6186 93.249C10.5377 83.2406 9.46085 73.2512 8.39907 63.2387C7.89794 58.5648 7.23196 53.8656 6.9259 49.1707C6.65138 45.0068 6.95942 40.4818 9.41278 36.9607C9.70384 36.5412 10.2971 35.6602 10.9836 35.795C16.3349 36.9631 20.4691 40.3179 24.7251 43.5874C29.4591 47.2346 34.2576 50.8085 39.0864 54.3362C48.8824 61.4822 58.898 68.3431 69.0798 74.9502C71.298 76.3968 70.0883 84.1375 67.5857 82.5714C57.5985 76.3217 47.8269 69.768 38.2517 62.9143C33.5314 59.5231 28.8564 56.0627 24.2268 52.533C20.0401 49.3087 15.8131 45.4159 10.5191 44.2358L12.0899 43.0701C10.2791 45.6601 11.3406 49.201 11.6538 52.1222L13.051 64.9716C14.0017 73.6931 14.9373 82.4377 15.888 91.1592C16.0582 92.6369 15.756 95.6672 14.0963 96.3139C12.3451 96.9996 11.7621 94.3141 11.6257 93.1878L11.6186 93.249Z" fill="#D8737F"/>
</g>
<defs>
<clipPath id="clip0_20_7">
<rect width="249.926" height="185.29" fill="white" transform="matrix(-0.205181 -0.978724 -0.978724 0.205181 232.628 244.608)"/>
</clipPath>
</defs>
</svg>
